<svg width="184" height="62" viewBox="0 0 184 62" fill="none" xmlns="http://www.w3.org/2000/svg">
<g clip-path="url(#clip0_15626_352)">
<path fill-rule="evenodd" clip-rule="evenodd" d="M0.280762 51.2956H4.60357V18.5537H0.280762V51.2956Z" fill="white"/>
<path fill-rule="evenodd" clip-rule="evenodd" d="M20.2508 48.4008C22.6306 48.4008 24.6209 47.587 26.2173 45.9567C27.8155 44.3283 28.615 42.3111 28.615 39.907C28.615 37.5039 27.8155 35.4867 26.2173 33.8573C24.6209 32.228 22.6306 31.4133 20.2508 31.4133C17.9008 31.4133 15.9266 32.228 14.3302 33.8573C12.732 35.4867 11.9325 37.5039 11.9325 39.907C11.9325 42.3111 12.732 44.3283 14.3302 45.9567C15.9266 47.587 17.9008 48.4008 20.2508 48.4008ZM28.615 18.5537H32.7018V51.7694H28.615V47.6887C26.578 50.8212 23.6172 52.387 19.7328 52.387C16.4447 52.387 13.6395 51.1772 11.3218 48.7568C9.0041 46.3364 7.8457 43.3873 7.8457 39.907C7.8457 36.4276 9.0041 33.4777 11.3218 31.0573C13.6395 28.6368 16.4447 27.4271 19.7328 27.4271C23.6172 27.4271 26.578 28.9938 28.615 32.1253V18.5537Z" fill="white"/>
<path fill-rule="evenodd" clip-rule="evenodd" d="M47.0529 31.1979C44.8818 31.1979 43.082 31.8263 41.6563 33.0831C40.2278 34.34 39.3444 36.0179 39.0043 38.1178H54.5431C54.2012 35.8589 53.3347 34.1408 51.9383 32.9635C50.5429 31.787 48.9132 31.1979 47.0529 31.1979ZM39.0043 41.7449C39.4068 43.8759 40.3596 45.531 41.8646 46.7074C43.3688 47.8857 45.2219 48.473 47.4251 48.473C50.4966 48.473 52.7291 47.313 54.1255 44.9893L57.5674 46.9933C55.3028 50.5894 51.8911 52.3869 47.3325 52.3869C43.6395 52.3869 40.6393 51.2013 38.3292 48.8311C36.0174 46.4608 34.8633 43.463 34.8633 39.8359C34.8633 36.2407 35.9951 33.2503 38.2598 30.8636C40.5226 28.4778 43.4534 27.2849 47.0529 27.2849C50.4645 27.2849 53.2483 28.5179 55.4043 30.9832C57.5603 33.4494 58.6387 36.4161 58.6387 39.8834C58.6387 40.4881 58.5915 41.1092 58.498 41.7449H39.0043Z" fill="white"/>
<path fill-rule="evenodd" clip-rule="evenodd" d="M71.0438 48.378C73.4235 48.378 75.413 47.5596 77.0103 45.9201C78.6085 44.2823 79.4071 42.2537 79.4071 39.8359C79.4071 37.419 78.6085 35.3904 77.0103 33.7517C75.413 32.1131 73.4235 31.2938 71.0438 31.2938C68.6937 31.2938 66.7196 32.1131 65.1232 33.7517C63.525 35.3904 62.7254 37.419 62.7254 39.8359C62.7254 42.2537 63.525 44.2823 65.1232 45.9201C66.7196 47.5596 68.6937 48.378 71.0438 48.378ZM79.4071 27.905H83.4948V51.7658H79.4071V47.6619C77.3709 50.8122 74.4102 52.3869 70.5258 52.3869C67.2376 52.3869 64.4325 51.1703 62.1148 48.7361C59.7971 46.3019 58.6387 43.336 58.6387 39.8359C58.6387 36.3367 59.7971 33.3699 62.1148 30.9357C64.4325 28.5015 67.2376 27.2849 70.5258 27.2849C74.4102 27.2849 77.3709 28.8605 79.4071 32.0099V27.905Z" fill="white"/>
<path fill-rule="evenodd" clip-rule="evenodd" d="M93.2211 45.3196C94.8174 46.9037 96.8068 47.6967 99.1874 47.6967C101.568 47.6967 103.557 46.9037 105.155 45.3196C106.754 43.7354 107.551 41.7624 107.551 39.4013C107.551 37.0706 106.754 35.1137 105.155 33.5295C103.557 31.9454 101.568 31.1524 99.1874 31.1524C96.8068 31.1524 94.8174 31.9454 93.2211 33.5295C91.623 35.1137 90.8234 37.0706 90.8234 39.4013C90.8234 41.7624 91.623 43.7354 93.2211 45.3196ZM107.551 27.8905H111.593V50.2129C111.593 53.6621 110.417 56.3416 108.069 58.2522C105.718 60.1628 102.901 61.1181 99.6101 61.1181C96.9804 61.1181 94.7077 60.6284 92.7975 59.6499C90.8864 58.6714 89.4456 57.2657 88.4753 55.4318L92.0457 53.4284C93.3299 56.0383 95.8832 57.3433 99.7054 57.3433C102.149 57.3433 104.066 56.7064 105.46 55.4318C106.854 54.1581 107.551 52.4178 107.551 50.2129V46.9037C105.484 50.0113 102.539 51.5642 98.7179 51.5642C95.366 51.5642 92.5304 50.3842 90.2128 48.0231C87.8952 45.6621 86.7368 42.7881 86.7368 39.4013C86.7368 36.0154 87.8952 33.1487 90.2128 30.8037C92.5304 28.4578 95.366 27.2849 98.7179 27.2849C102.572 27.2849 105.514 28.8226 107.551 31.8981V27.8905Z" fill="white"/>
<path fill-rule="evenodd" clip-rule="evenodd" d="M125.944 31.1979C123.773 31.1979 121.973 31.8263 120.547 33.0831C119.12 34.34 118.236 36.0179 117.895 38.1178H133.434C133.092 35.8589 132.225 34.1408 130.829 32.9635C129.434 31.787 127.805 31.1979 125.944 31.1979ZM117.895 41.7449C118.298 43.8759 119.251 45.531 120.756 46.7074C122.26 47.8857 124.114 48.473 126.316 48.473C129.387 48.473 131.62 47.313 133.016 44.9893L136.459 46.9933C134.194 50.5894 130.783 52.3869 126.223 52.3869C122.531 52.3869 119.531 51.2013 117.221 48.8311C114.909 46.4608 113.754 43.463 113.754 39.8359C113.754 36.2407 114.886 33.2503 117.152 30.8636C119.414 28.4778 122.345 27.2849 125.944 27.2849C129.355 27.2849 132.139 28.5179 134.295 30.9832C136.451 33.4494 137.53 36.4161 137.53 39.8834C137.53 40.4881 137.483 41.1092 137.389 41.7449H117.895Z" fill="white"/>
<path fill-rule="evenodd" clip-rule="evenodd" d="M151.231 27.2849C153.95 27.2849 156.129 28.1511 157.767 29.8828C159.404 31.6145 160.225 33.9626 160.225 36.9269V51.2955H156.191V37.1608C156.191 35.258 155.682 33.7834 154.662 32.737C153.642 31.6925 152.235 31.1693 150.444 31.1693C148.436 31.1693 146.813 31.8017 145.577 33.0658C144.341 34.329 143.722 36.2712 143.722 38.8933V51.2955H139.691V27.8931H143.722V31.2633C145.361 28.6107 147.863 27.2849 151.231 27.2849Z" fill="white"/>
<path fill-rule="evenodd" clip-rule="evenodd" d="M166.708 5.45698V10.856L167.107 10.8551L167.11 5.70918L175.354 10.914L184 5.45698L175.354 0L166.708 5.45698Z" fill="white"/>
<path fill-rule="evenodd" clip-rule="evenodd" d="M175.354 10.9139V20.7365L184 15.2795V5.45697L175.354 10.9139Z" fill="white"/>
<path fill-rule="evenodd" clip-rule="evenodd" d="M158.063 20.7365V26.1356L158.462 26.1346L158.464 20.9887L166.709 26.1935L175.354 20.7365L166.709 15.2795L158.063 20.7365Z" fill="white"/>
<path fill-rule="evenodd" clip-rule="evenodd" d="M166.708 26.1935V36.016L175.354 30.5591V20.7365L166.708 26.1935Z" fill="white"/>
</g>
<defs>
<clipPath id="clip0_15626_352">
<rect width="183.719" height="61.1181" fill="white" transform="translate(0.280762)"/>
</clipPath>
</defs>
</svg>
